<svg width="721" height="194" viewBox="0 0 721 194" fill="none" xmlns="http://www.w3.org/2000/svg">
<rect y="103" width="721" height="91" fill="url(#paint0_linear_550_113)"/>
<path d="M64.2 149V44H83.4L132.75 117.95V44H151.95V149H132.75L83.4 75.2V149H64.2ZM207.555 150.8C200.355 150.8 193.855 149.15 188.055 145.85C182.355 142.55 177.805 138 174.405 132.2C171.105 126.3 169.455 119.5 169.455 111.8C169.455 104.1 171.155 97.35 174.555 91.55C177.955 85.65 182.505 81.05 188.205 77.75C194.005 74.45 200.505 72.8 207.705 72.8C214.805 72.8 221.205 74.45 226.905 77.75C232.705 81.05 237.255 85.65 240.555 91.55C243.955 97.35 245.655 104.1 245.655 111.8C245.655 119.5 243.955 126.3 240.555 132.2C237.255 138 232.705 142.55 226.905 145.85C221.105 149.15 214.655 150.8 207.555 150.8ZM207.555 134.15C212.555 134.15 216.905 132.3 220.605 128.6C224.305 124.8 226.155 119.2 226.155 111.8C226.155 104.4 224.305 98.85 220.605 95.15C216.905 91.35 212.605 89.45 207.705 89.45C202.605 89.45 198.205 91.35 194.505 95.15C190.905 98.85 189.105 104.4 189.105 111.8C189.105 119.2 190.905 124.8 194.505 128.6C198.205 132.3 202.555 134.15 207.555 134.15ZM293.043 149C285.243 149 278.993 147.1 274.293 143.3C269.593 139.5 267.243 132.75 267.243 123.05V90.65H254.493V74.6H267.243L269.493 54.65H286.443V74.6H306.543V90.65H286.443V123.2C286.443 126.8 287.193 129.3 288.693 130.7C290.293 132 292.993 132.65 296.793 132.65H306.093V149H293.043ZM327.077 115.85L324.977 44H345.527L343.277 115.85H327.077ZM335.627 150.05C332.027 150.05 329.077 148.95 326.777 146.75C324.577 144.55 323.477 141.9 323.477 138.8C323.477 135.6 324.577 132.9 326.777 130.7C329.077 128.5 332.027 127.4 335.627 127.4C339.027 127.4 341.827 128.5 344.027 130.7C346.327 132.9 347.477 135.6 347.477 138.8C347.477 141.9 346.327 144.55 344.027 146.75C341.827 148.95 339.027 150.05 335.627 150.05ZM403.862 150.8C396.262 150.8 389.562 149.15 383.762 145.85C377.962 142.55 373.362 137.95 369.962 132.05C366.662 126.15 365.012 119.4 365.012 111.8C365.012 104.2 366.662 97.45 369.962 91.55C373.362 85.65 377.962 81.05 383.762 77.75C389.562 74.45 396.262 72.8 403.862 72.8C413.362 72.8 421.362 75.3 427.862 80.3C434.362 85.2 438.512 92 440.312 100.7H420.062C419.062 97.1 417.062 94.3 414.062 92.3C411.162 90.2 407.712 89.15 403.712 89.15C398.412 89.15 393.912 91.15 390.212 95.15C386.512 99.15 384.662 104.7 384.662 111.8C384.662 118.9 386.512 124.45 390.212 128.45C393.912 132.45 398.412 134.45 403.712 134.45C407.712 134.45 411.162 133.45 414.062 131.45C417.062 129.45 419.062 126.6 420.062 122.9H440.312C438.512 131.3 434.362 138.05 427.862 143.15C421.362 148.25 413.362 150.8 403.862 150.8ZM493.504 150.8C486.004 150.8 479.354 149.2 473.554 146C467.754 142.8 463.204 138.3 459.904 132.5C456.604 126.7 454.954 120 454.954 112.4C454.954 104.7 456.554 97.85 459.754 91.85C463.054 85.85 467.554 81.2 473.254 77.9C479.054 74.5 485.854 72.8 493.654 72.8C500.954 72.8 507.404 74.4 513.004 77.6C518.604 80.8 522.954 85.2 526.054 90.8C529.254 96.3 530.854 102.45 530.854 109.25C530.854 110.35 530.804 111.5 530.704 112.7C530.704 113.9 530.654 115.15 530.554 116.45H474.004C474.404 122.25 476.404 126.8 480.004 130.1C483.704 133.4 488.154 135.05 493.354 135.05C497.254 135.05 500.504 134.2 503.104 132.5C505.804 130.7 507.804 128.4 509.104 125.6H528.604C527.204 130.3 524.854 134.6 521.554 138.5C518.354 142.3 514.354 145.3 509.554 147.5C504.854 149.7 499.504 150.8 493.504 150.8ZM493.654 88.4C488.954 88.4 484.804 89.75 481.204 92.45C477.604 95.05 475.304 99.05 474.304 104.45H511.354C511.054 99.55 509.254 95.65 505.954 92.75C502.654 89.85 498.554 88.4 493.654 88.4Z" fill="#1F1F1F"/>
<defs>
<linearGradient id="paint0_linear_550_113" x1="721" y1="151.533" x2="-1.502e-05" y2="151.533" gradientUnits="userSpaceOnUse">
<stop stop-color="#E96B6B" stop-opacity="0.67"/>
<stop offset="1" stop-color="#FFE3C2" stop-opacity="0.28"/>
</linearGradient>
</defs>
</svg>
